<svg width="210" height="52" viewBox="0 0 210 52" fill="none"
     xmlns="http://www.w3.org/2000/svg">
    <path opacity="0.5" fill-rule="evenodd" clip-rule="evenodd"
          d="M0.173828 20.423L1.55054 15.1548L11.2465 9.54169V16.5744L0.173828 23.5541V20.423Z"
          fill="#d9b432"/>
    <path opacity="0.7" fill-rule="evenodd" clip-rule="evenodd"
          d="M4.7627 20.6085L15.6811 13.8195V19.3948C15.6811 19.3948 15.5152 21.235 14.717 21.5778C14.1268 21.8186 4.76561 27.3575 4.76561 27.3575L4.7627 20.6085Z"
          fill="#d9b432"/>
    <path opacity="0.9" fill-rule="evenodd" clip-rule="evenodd"
          d="M10.709 23.9019L20.4151 18.1818V23.7564C20.4151 23.7564 20.4151 25.2975 19.451 25.8396C18.8288 26.1722 10.7112 30.8968 10.7112 30.8968L10.709 23.9019Z"
          fill="#d9b432"/>
    <path opacity="0.5" fill-rule="evenodd" clip-rule="evenodd"
          d="M14.7314 7.5501L20.068 4.1098V11.1389L14.7365 14.4017L14.7314 7.5501Z"
          fill="#d9b432"/>
    <path opacity="0.7" fill-rule="evenodd" clip-rule="evenodd"
          d="M19.0769 11.7384L24.4397 8.57098V15.8475L19.0747 18.9633L19.0769 11.7384Z"
          fill="#d9b432"/>
    <path opacity="0.5" fill-rule="evenodd" clip-rule="evenodd"
          d="M23.189 2.23462L26.841 0V4.84761C26.841 4.84761 26.841 7.27287 25.8769 7.75822C25.6914 7.85645 23.2086 9.30157 23.2086 9.30157L23.189 2.23462Z"
          fill="#d9b432"/>
    <path opacity="0.9" fill-rule="evenodd" clip-rule="evenodd"
          d="M23.2854 16.4297L26.9237 14.2467L26.84 19.8169C26.84 19.8169 26.9237 21.286 25.8758 21.9998C25.6343 22.2145 23.1566 23.4209 23.2003 23.4449C23.2439 23.4689 23.2709 16.2325 23.2854 16.4297Z"
          fill="#d9b432"/>
    <path opacity="0.7" fill-rule="evenodd" clip-rule="evenodd"
          d="M27.5684 6.7868L30.479 4.85999C30.479 4.85999 30.5081 7.75021 30.479 9.70832C30.4576 10.3031 30.3188 10.8878 30.0707 11.4287C29.8226 11.9696 29.4699 12.4563 29.0331 12.8605C29.0331 12.8605 27.5276 13.7977 27.5735 13.8239C27.6193 13.8501 27.5684 6.7868 27.5684 6.7868Z"
          fill="#d9b432"/>
    <path fill-rule="evenodd" clip-rule="evenodd"
          d="M11.2464 9.53659C11.2013 9.63119 2.34507 14.0262 1.00255 15.5339C1.68727 14.9561 0.420432 16.1044 0.274902 17.834L0.696211 34.089C0.696211 34.089 0.0194965 36.9021 3.34632 38.8143C5.71846 40.178 19.4391 47.9675 21.1236 48.7599C22.8081 49.5523 23.2425 48.3 23.2425 48.3V32.5223C23.2061 32.4794 23.7453 30.0294 20.858 28.1819C20.3035 27.7002 2.5248 19.6022 1.7695 17.0525C0.958167 14.3143 11.2464 10.2446 11.2464 9.53659Z"
          fill="#d9b432"/>
    <path fill-rule="evenodd" clip-rule="evenodd"
          d="M22.4152 32.3804L23.2811 31.7539V48.5627C23.2811 48.5627 22.8634 49.4031 22.4152 49.4831C22.3621 49.4555 22.4152 32.3804 22.4152 32.3804Z"
          fill="#d9b432"/>
    <path d="M1.15989 17.6055C1.28291 17.8009 1.42396 17.9843 1.5812 18.1534C1.4033 17.957 1.25388 17.7366 1.13734 17.4985C0.089519 14.796 7.68621 11.7574 10.8515 9.72723C10.8515 9.72723 3.16821 13.5423 1.64524 14.8732C0.299082 16.0491 0.202305 16.76 0.202305 16.76L0.0400391 17.7532C0.0735106 17.2715 0.0844254 16.8415 0.202305 16.76C0.187752 16.8437 1.14752 17.4796 1.15989 17.6055Z"
          fill="#d9b432"/>
    <path d="M20.0482 28.8499C19.4238 28.3223 11.4561 24.679 5.94629 21.3842C6.27373 21.5908 6.56552 21.772 6.79473 21.9234L19.8459 48.1683C20.1209 48.3138 20.3283 48.431 20.4869 48.5052L22.4152 49.4686V32.6097C22.3912 32.5907 22.6073 30.263 20.0482 28.8499Z"
          fill="#d9b432"/>
    <path opacity="0.3"
          d="M0.595218 36.2756C0.296862 35.6609 0.0960499 35.0034 0 34.3269C0.0292989 35.0165 0.234174 35.6873 0.595218 36.2756Z"
          fill="#d9b432"/>
    <path d="M5.9462 21.3842C3.99609 20.2302 2.38071 19.0936 1.58029 18.1542C1.42327 17.9848 1.28246 17.8012 1.15971 17.6055C1.14516 17.4796 0.213766 16.7549 0.238506 16.6683C0.120627 16.7505 0.045679 17.2606 0.012207 17.7452L0.0376748 34.3233C0.132269 35.5508 0.226864 35.5981 0.552851 36.2756C1.02946 37.0141 1.26522 37.2943 2.11512 38.0525C4.11033 39.2713 16.4644 46.3375 19.8633 48.1669L6.79464 21.9161L5.9462 21.3842Z"
          fill="#d9b432"/>
    <path opacity="0.2"
          d="M5.92437 21.3726C3.97426 20.2185 2.35888 19.0819 1.55846 18.1425C1.4084 17.9725 1.27488 17.7885 1.15971 17.5931C1.14516 17.468 0.210128 16.7432 0.238506 16.6566C0.180294 16.7127 0.0718744 17.3617 0.0384025 17.8456L0.012207 34.372C0.0595043 35.4046 0.261063 35.6905 0.557945 36.3061C0.982891 37.0141 1.52936 37.5431 2.14568 38.0409C4.14162 39.2597 16.4433 46.3259 19.8421 48.1552L6.77281 21.9045L5.92437 21.3726Z"
          fill="#d9b432"/>
    <path fill-rule="evenodd" clip-rule="evenodd"
          d="M19.6048 35.6803L16.8929 34.0067C16.4112 33.7273 15.947 33.9078 16.1849 34.4018V38.9053C16.3006 39.0719 16.5342 39.6111 16.4258 39.8832C16.0372 39.8643 17.9684 41.4841 19.0598 42.0946C19.3778 42.2728 19.9709 42.3471 19.925 41.6129V36.2632C19.9264 36.1466 19.8973 36.0317 19.8406 35.9299C19.7847 35.8279 19.7035 35.742 19.6048 35.6803Z"
          fill="#d9b432"/>
    <path fill-rule="evenodd" clip-rule="evenodd"
          d="M19.4894 35.9503C19.0674 35.4249 17.6572 34.618 16.7003 33.9274C16.4595 33.7513 16.0404 33.8765 16.0455 34.1683C16.1059 37.5759 16.1182 39.144 16.3154 39.8112C16.4609 40.3206 18.0582 41.3909 18.9663 41.9942C19.2362 42.1768 19.6008 42.2205 19.6124 41.8901C19.6634 40.4574 19.6124 37.1335 19.6124 36.2836C19.6083 36.1613 19.5643 36.0438 19.4873 35.9489L19.4894 35.9503Z"
          fill="#d9b432"/>
    <path fill-rule="evenodd" clip-rule="evenodd"
          d="M34.9497 32.6446C35.8745 33.5769 36.9799 34.3108 38.1982 34.8011C39.4164 35.2914 40.722 35.528 42.0348 35.4963C43.6974 35.5166 45.3379 35.1142 46.8024 34.3269C48.1983 33.5811 49.3674 32.4729 50.1867 31.1187L47.8822 29.4189C47.3398 30.3044 46.604 31.0555 45.7298 31.6158C44.8556 32.1761 43.8658 32.5311 42.8348 32.6543C41.8038 32.7774 40.7582 32.6653 39.7767 32.3265C38.7952 31.9877 37.9032 31.431 37.1676 30.6981C35.908 29.3273 35.209 27.5336 35.209 25.6719C35.209 23.8102 35.908 22.0164 37.1676 20.6456C37.9041 19.9142 38.7966 19.3588 39.7782 19.0211C40.7597 18.6835 41.805 18.5722 42.8356 18.6958C43.8662 18.8193 44.8556 19.1744 45.7295 19.7345C46.6035 20.2946 47.3395 21.0452 47.8822 21.9299L50.1867 20.2308C49.359 18.8812 48.1855 17.7773 46.7878 17.0335C45.3302 16.2409 43.6939 15.8346 42.0348 15.8533C40.7217 15.8188 39.4154 16.054 38.1968 16.5443C36.9781 17.0347 35.8729 17.7698 34.9497 18.7042C33.1013 20.5334 32.0552 23.0218 32.0416 25.6222C32.028 28.2226 33.0478 30.722 34.8769 32.5704C34.9007 32.5961 34.925 32.6209 34.9497 32.6446ZM53.6052 33.3184C54.2853 34.0305 55.1069 34.5921 56.0174 34.9672C56.9277 35.3424 57.9065 35.5226 58.8908 35.4963C59.8802 35.5242 60.8644 35.3466 61.7816 34.9747C62.6989 34.6029 63.5289 34.0449 64.2194 33.3359C65.6057 31.9705 66.393 30.1104 66.408 28.1646C66.423 26.2189 65.6645 24.3469 64.2995 22.9603L64.2194 22.8802C62.7995 21.4982 60.8972 20.7235 58.9157 20.7204C56.9343 20.7173 55.0295 21.486 53.6052 22.8635C52.9187 23.5463 52.3734 24.3576 52.0004 25.2513C51.6274 26.1448 51.4341 27.1031 51.4316 28.0714C51.429 29.0397 51.6172 29.999 51.9854 30.8945C52.3536 31.7901 52.8946 32.6043 53.5775 33.2907L53.6052 33.3184ZM62.0299 31.377C61.6291 31.7892 61.1509 32.1183 60.6228 32.3457C60.0947 32.573 59.527 32.6941 58.9521 32.702C58.3773 32.7099 57.8064 32.6044 57.2723 32.3917C56.7382 32.179 56.2511 31.8632 55.8391 31.4621C55.8143 31.4381 55.7896 31.4134 55.7663 31.3894C55.3518 30.9547 55.0275 30.4421 54.8124 29.8813C54.5971 29.3206 54.4952 28.7227 54.5126 28.1222C54.4966 27.5158 54.6003 26.9121 54.8178 26.3457C55.0353 25.7794 55.3623 25.2615 55.7801 24.8216C56.1719 24.4113 56.6406 24.0821 57.1595 23.8528C57.6785 23.6236 58.2376 23.4989 58.8047 23.4857C59.3719 23.4725 59.9361 23.5711 60.4651 23.776C60.9942 23.9809 61.4777 24.288 61.888 24.6797C61.9366 24.7282 61.9839 24.7755 62.0299 24.8216C62.4484 25.2612 62.7761 25.779 62.9942 26.3454C63.2124 26.9117 63.3166 27.5155 63.3011 28.1222C63.3152 28.7217 63.2105 29.318 62.993 29.8767C62.7754 30.4355 62.4493 30.9457 62.0336 31.3777L62.0299 31.377ZM71.7681 35.1804V21.0371H68.7454V35.1804H71.7681ZM70.2706 17.7532C70.8079 17.7597 71.3257 17.5526 71.7106 17.1776C71.9049 16.998 72.0593 16.7795 72.1636 16.5363C72.268 16.2931 72.3198 16.0306 72.316 15.766C72.3199 15.4989 72.2681 15.2339 72.1639 14.988C72.0596 14.742 71.9053 14.5205 71.7106 14.3376C71.5221 14.1482 71.2976 13.9986 71.0502 13.8976C70.8028 13.7966 70.5378 13.7463 70.2706 13.7496C69.9988 13.7444 69.7288 13.7937 69.4764 13.8947C69.2241 13.9957 68.9946 14.1463 68.8014 14.3376C68.6069 14.5206 68.4526 14.7421 68.3485 14.988C68.2443 15.234 68.1927 15.4989 68.1968 15.766C68.1928 16.0305 68.2446 16.293 68.3488 16.5363C68.4529 16.7794 68.6072 16.998 68.8014 17.1776C69.1958 17.5562 69.724 17.7632 70.2706 17.7532ZM85.9878 22.2464C85.4886 21.7304 84.884 21.327 84.216 21.0635C83.548 20.7999 82.8313 20.6823 82.1138 20.7184C81.3279 20.6864 80.5443 20.8213 79.8144 21.1144C79.0846 21.4073 78.4253 21.8517 77.8796 22.4182V21.0356H75.057V35.1804H78.0812V26.7397C78.0652 26.3051 78.1372 25.8718 78.2929 25.4659C78.4493 25.0599 78.6858 24.6897 78.9885 24.3777C79.2905 24.0721 79.6522 23.8324 80.0516 23.6737C80.4504 23.515 80.8783 23.4408 81.3076 23.4558C81.7223 23.4386 82.1364 23.5104 82.5213 23.6664C82.9062 23.8225 83.2533 24.059 83.5393 24.3603C84.1221 25.0118 84.4263 25.8662 84.3862 26.7397V35.1804H87.4104V26.3366C87.4875 24.8396 86.976 23.3719 85.9849 22.2472L85.9878 22.2464ZM93.8974 35.1804V27.8348H97.7852C99.4894 27.9055 101.155 27.3174 102.437 26.1925C102.989 25.6652 103.433 25.0343 103.742 24.3357C104.05 23.637 104.218 22.8845 104.236 22.1209C104.254 21.3574 104.121 20.5978 103.845 19.8856C103.569 19.1733 103.156 18.5225 102.628 17.97C102.571 17.9096 102.512 17.85 102.452 17.7925C101.161 16.6734 99.4915 16.0919 97.7852 16.1676H90.8441V35.1804H93.8974ZM93.8974 18.881H97.7277C98.6315 18.8286 99.5199 19.1327 100.202 19.728C100.504 20.0259 100.739 20.3841 100.893 20.7791C101.047 21.1742 101.116 21.5974 101.095 22.0209C101.116 22.4418 101.047 22.8623 100.893 23.2546C100.739 23.6469 100.504 24.002 100.202 24.2962C99.5156 24.8836 98.6293 25.1829 97.7277 25.1316H93.8974V18.881ZM115.821 22.2799C115.259 21.7494 114.595 21.3381 113.871 21.0707C113.145 20.8034 112.373 20.6855 111.601 20.7242C110.431 20.6713 109.267 20.922 108.222 21.4521C107.178 21.9822 106.288 22.7734 105.639 23.749L107.397 25.5303C108.568 24.1245 109.871 23.4274 111.314 23.4274C111.72 23.4025 112.125 23.4583 112.508 23.5919C112.892 23.7255 113.244 23.934 113.546 24.2053C113.824 24.5062 114.038 24.8607 114.174 25.2471C114.31 25.6334 114.366 26.0435 114.339 26.4523V27.3735H110.336C108.982 27.3007 107.643 27.6865 106.534 28.4686C106.08 28.8078 105.714 29.2523 105.468 29.7638C105.222 30.2754 105.104 30.8389 105.124 31.4061C105.105 31.9716 105.217 32.5336 105.452 33.0483C105.687 33.563 106.037 34.0163 106.477 34.3728C107.496 35.1605 108.762 35.5589 110.048 35.4963C110.897 35.5466 111.747 35.4014 112.53 35.0719C113.315 34.7424 114.013 34.2373 114.571 33.5956V35.1804H117.393V26.6247C117.392 24.7583 116.868 23.3124 115.821 22.2755V22.2799ZM113.291 32.2124C112.575 32.8512 111.643 33.1916 110.684 33.1634C110.045 33.1929 109.413 33.0142 108.884 32.654C108.667 32.5004 108.492 32.2952 108.373 32.0569C108.255 31.8186 108.199 31.5548 108.207 31.289C108.207 30.1364 109.043 29.5604 110.713 29.5608H114.342V29.8198C114.352 30.2713 114.264 30.7194 114.082 31.1327C113.9 31.546 113.63 31.9145 113.291 32.2124ZM125.561 31.3195L121.499 21.0371H118.239L123.885 34.5459L123.308 35.871C123.083 36.5005 122.663 37.0415 122.108 37.4146C121.554 37.7878 120.895 37.9736 120.227 37.9448C119.9 37.9448 119.343 37.904 118.553 37.8291V40.3926C119.316 40.5865 120.099 40.6842 120.886 40.6837C121.98 40.7188 123.056 40.3885 123.942 39.745C124.889 38.957 125.623 37.9423 126.073 36.7951L132.958 21.04H129.736L125.561 31.3195ZM154.324 22.2588C153.834 21.7414 153.237 21.3361 152.577 21.0706C151.915 20.8052 151.204 20.6857 150.493 20.7206C149.576 20.6755 148.661 20.8538 147.829 21.2402C146.995 21.6265 146.269 22.2093 145.711 22.9384C144.808 21.458 143.377 20.7187 141.418 20.7206C140.659 20.6933 139.904 20.8253 139.199 21.1081C138.494 21.3909 137.857 21.8181 137.328 22.3621V21.0378H134.505V35.1804H137.529V26.7688C137.492 25.8926 137.802 25.0371 138.395 24.3901C138.684 24.0894 139.034 23.8535 139.421 23.6975C139.808 23.5417 140.224 23.4695 140.641 23.4856C141.045 23.4677 141.449 23.5394 141.823 23.6958C142.196 23.8522 142.531 24.0893 142.801 24.3901C143.359 25.0536 143.648 25.9027 143.608 26.7688V35.1804H146.632V26.6247C146.616 26.2092 146.683 25.7945 146.831 25.4056C146.979 25.0167 147.203 24.6614 147.49 24.361C147.784 24.0681 148.136 23.8393 148.522 23.6891C148.909 23.5387 149.322 23.4703 149.737 23.4878C150.139 23.4682 150.54 23.5382 150.911 23.6926C151.282 23.847 151.614 24.082 151.883 24.3806C152.438 25.0497 152.721 25.903 152.675 26.771V35.1804H155.731V26.3366C155.802 24.8473 155.296 23.3878 154.319 22.2617L154.324 22.2588ZM171.821 27.201C171.843 26.3429 171.688 25.4894 171.366 24.6936C171.044 23.8978 170.562 23.1768 169.949 22.5753C169.338 21.9656 168.609 21.4867 167.807 21.1678C167.004 20.8489 166.146 20.6968 165.283 20.7206C164.316 20.6919 163.354 20.868 162.461 21.2373C161.567 21.6067 160.763 22.1609 160.098 22.8635C159.052 23.9143 158.345 25.2549 158.068 26.712C157.792 28.1691 157.96 29.6755 158.549 31.0363C159.139 32.3971 160.123 33.5496 161.375 34.3448C162.627 35.1399 164.089 35.5411 165.571 35.4963C166.614 35.5072 167.651 35.3119 168.618 34.9214C169.586 34.5309 170.468 33.953 171.212 33.2209L169.772 31.1471C168.661 32.2063 167.188 32.8044 165.653 32.8207C164.546 32.8536 163.461 32.5012 162.585 31.8238C161.742 31.1487 161.19 30.1751 161.044 29.1046H171.586C171.729 28.4808 171.806 27.8438 171.816 27.2039L171.821 27.201ZM162.561 24.2176C163.288 23.5999 164.214 23.2681 165.168 23.2848C166.11 23.2574 167.027 23.5911 167.731 24.2176C168.078 24.5382 168.352 24.929 168.535 25.3639C168.718 25.7989 168.806 26.268 168.793 26.7397H161.102C161.287 25.7579 161.8 24.868 162.558 24.2162L162.561 24.2176ZM185.183 22.2472C184.683 21.7311 184.079 21.3278 183.411 21.0642C182.743 20.8007 182.026 20.683 181.309 20.7191C180.523 20.6869 179.739 20.8217 179.01 21.1146C178.28 21.4075 177.621 21.8518 177.075 22.4182V21.0356H174.252V35.1804H177.277V26.7397C177.26 26.3051 177.332 25.8718 177.488 25.4658C177.644 25.0598 177.881 24.6897 178.183 24.3777C178.485 24.0723 178.847 23.8326 179.246 23.6739C179.645 23.5152 180.073 23.4409 180.502 23.4558C180.917 23.4389 181.331 23.5109 181.716 23.6669C182.101 23.8229 182.449 24.0592 182.735 24.3603C183.317 25.0124 183.621 25.8664 183.582 26.7397V35.1804H186.607V26.3366C186.683 24.8395 186.171 23.3719 185.18 22.2472H185.183ZM196.07 32.7603C195.321 32.8199 194.574 32.6206 193.953 32.1956C193.707 31.9519 193.519 31.6563 193.401 31.3304C193.284 31.0044 193.241 30.6563 193.276 30.3117V23.6581H197.48V21.0385H193.275V17.3217H190.219V21.0378H187.915V23.6574H190.219V30.57C190.219 32.201 190.675 33.43 191.587 34.2571C192.667 35.1394 194.04 35.5812 195.432 35.4941C196.276 35.4714 197.115 35.3654 197.938 35.1775V32.6162C197.016 32.7086 196.392 32.7617 196.066 32.7617L196.07 32.7603ZM204.716 35.4963C206.054 35.5454 207.371 35.1503 208.461 34.3728C208.948 33.9998 209.339 33.5146 209.599 32.9585C209.859 32.4023 209.981 31.7917 209.955 31.1784C209.986 30.2778 209.661 29.4014 209.049 28.7393C208.198 27.9386 207.194 27.3175 206.097 26.9129L204.743 26.3657C204.215 26.1793 203.719 25.9113 203.275 25.5711C203.148 25.4642 203.046 25.3304 202.976 25.1795C202.906 25.0286 202.87 24.8642 202.872 24.6979C202.872 23.7942 203.515 23.343 204.801 23.3445C205.424 23.3381 206.041 23.4631 206.611 23.7112C207.182 23.9593 207.694 24.325 208.114 24.7845L209.755 22.9122C209.162 22.1968 208.411 21.6273 207.562 21.2478C206.713 20.8683 205.788 20.689 204.859 20.7235C203.572 20.669 202.306 21.0596 201.273 21.8295C200.82 22.1802 200.457 22.6337 200.214 23.1524C199.971 23.6713 199.856 24.2404 199.876 24.8129C199.845 25.6882 200.161 26.5402 200.754 27.1843C201.563 27.9497 202.519 28.5438 203.563 28.9306L205.003 29.5353C205.557 29.7342 206.081 30.0095 206.558 30.3532C206.697 30.4661 206.809 30.6096 206.884 30.7726C206.959 30.9354 206.995 31.1134 206.99 31.2926C206.997 31.5253 206.941 31.7556 206.83 31.9601C206.719 32.1645 206.555 32.3359 206.356 32.4568C205.862 32.7545 205.291 32.9007 204.715 32.8774C203.351 32.8774 202.026 32.2054 200.74 30.8611L199.008 32.7596C199.667 33.6424 200.53 34.3525 201.523 34.8291C202.517 35.3057 203.61 35.5346 204.711 35.4963H204.716Z"
          fill="#d9b432"/>
</svg>